<svg width="1046" height="157" viewBox="0 0 1046 157" fill="none" xmlns="http://www.w3.org/2000/svg">
<mask id="path-1-outside-1_28_185" maskUnits="userSpaceOnUse" x="-41" y="-1" width="1088" height="159" fill="black">
<rect fill="white" x="-41" y="-1" width="1088" height="159"/>
<path d="M68.856 132.102H18.352L10.862 155H-39L16.426 3.488H71.21L126.422 155H76.346L68.856 132.102ZM57.3 96.364L43.604 54.206L29.908 96.364H57.3ZM238.652 77.318C247.782 79.458 254.844 83.8807 259.838 90.586C264.974 97.1487 267.542 104.781 267.542 113.484C267.542 126.752 263.119 137.024 254.274 144.3C245.571 151.433 233.016 155 216.61 155H137.216V3.488H214.47C229.878 3.488 242.004 6.84067 250.85 13.546C259.695 20.2513 264.118 30.024 264.118 42.864C264.118 51.7093 261.764 59.1993 257.056 65.334C252.49 71.326 246.356 75.3207 238.652 77.318ZM184.724 62.552H203.128C207.408 62.552 210.546 61.696 212.544 59.984C214.684 58.272 215.754 55.6327 215.754 52.066C215.754 48.3567 214.684 45.646 212.544 43.934C210.546 42.0793 207.408 41.152 203.128 41.152H184.724V62.552ZM206.338 116.908C210.618 116.908 213.756 116.123 215.754 114.554C217.894 112.842 218.964 110.131 218.964 106.422C218.964 99.146 214.755 95.508 206.338 95.508H184.724V116.908H206.338ZM357.335 156.498C343.068 156.498 329.943 153.145 317.959 146.44C306.117 139.735 296.701 130.461 289.711 118.62C282.72 106.779 279.225 93.4393 279.225 78.602C279.225 63.7647 282.72 50.4253 289.711 38.584C296.701 26.7427 306.117 17.5407 317.959 10.978C329.943 4.27266 343.068 0.919994 357.335 0.919994C371.601 0.919994 384.655 4.27266 396.497 10.978C408.338 17.5407 417.683 26.7427 424.531 38.584C431.521 50.4253 435.017 63.7647 435.017 78.602C435.017 93.4393 431.521 106.779 424.531 118.62C417.683 130.461 408.267 139.735 396.283 146.44C384.441 153.145 371.459 156.498 357.335 156.498ZM357.335 112.2C366.751 112.2 374.027 109.204 379.163 103.212C384.299 97.0773 386.867 88.874 386.867 78.602C386.867 68.1873 384.299 59.984 379.163 53.992C374.027 47.8573 366.751 44.79 357.335 44.79C347.776 44.79 340.429 47.8573 335.293 53.992C330.157 59.984 327.589 68.1873 327.589 78.602C327.589 88.874 330.157 97.0773 335.293 103.212C340.429 109.204 347.776 112.2 357.335 112.2ZM498.593 3.488V88.874C498.593 95.8647 500.091 101.429 503.087 105.566C506.226 109.561 511.219 111.558 518.067 111.558C524.915 111.558 529.98 109.561 533.261 105.566C536.542 101.429 538.183 95.8647 538.183 88.874V3.488H585.477V88.874C585.477 103.283 582.481 115.624 576.489 125.896C570.497 136.025 562.294 143.658 551.879 148.794C541.464 153.93 529.837 156.498 516.997 156.498C504.157 156.498 492.744 153.93 482.757 148.794C472.913 143.658 465.209 136.025 459.645 125.896C454.081 115.767 451.299 103.426 451.299 88.874V3.488H498.593ZM724.952 3.488V41.152H684.72V155H637.212V41.152H597.408V3.488H724.952ZM820.638 3.488V88.874C820.638 95.8647 822.136 101.429 825.132 105.566C828.271 109.561 833.264 111.558 840.112 111.558C846.96 111.558 852.025 109.561 855.306 105.566C858.587 101.429 860.228 95.8647 860.228 88.874V3.488H907.522V88.874C907.522 103.283 904.526 115.624 898.534 125.896C892.542 136.025 884.339 143.658 873.924 148.794C863.509 153.93 851.882 156.498 839.042 156.498C826.202 156.498 814.789 153.93 804.802 148.794C794.958 143.658 787.254 136.025 781.69 125.896C776.126 115.767 773.344 103.426 773.344 88.874V3.488H820.638ZM987.291 156.498C969.172 156.498 954.192 152.289 942.351 143.872C930.652 135.312 924.303 122.829 923.305 106.422H973.808C974.522 115.125 978.374 119.476 985.365 119.476C987.933 119.476 990.073 118.905 991.785 117.764C993.639 116.48 994.567 114.554 994.567 111.986C994.567 108.419 992.641 105.566 988.789 103.426C984.937 101.143 978.945 98.5753 970.812 95.722C961.111 92.298 953.051 88.9453 946.631 85.664C940.353 82.3827 934.932 77.6033 930.367 71.326C925.801 65.0487 923.59 56.988 923.733 47.144C923.733 37.3 926.229 28.954 931.223 22.106C936.359 15.1153 943.278 9.83666 951.981 6.26999C960.826 2.70333 970.741 0.919994 981.727 0.919994C1000.27 0.919994 1014.97 5.19999 1025.81 13.76C1036.8 22.32 1042.57 34.3753 1043.14 49.926H991.999C991.856 45.646 990.786 42.5787 988.789 40.724C986.791 38.8693 984.366 37.942 981.513 37.942C979.515 37.942 977.875 38.6553 976.591 40.082C975.307 41.366 974.665 43.2207 974.665 45.646C974.665 49.07 976.519 51.9233 980.228 54.206C984.081 56.346 990.144 58.9853 998.419 62.124C1007.98 65.6907 1015.82 69.1147 1021.96 72.396C1028.24 75.6773 1033.66 80.2427 1038.22 86.092C1042.79 91.9413 1045.07 99.2887 1045.07 108.134C1045.07 117.407 1042.79 125.753 1038.22 133.172C1033.66 140.448 1027.02 146.155 1018.32 150.292C1009.62 154.429 999.275 156.498 987.291 156.498Z"/>
</mask>
<path d="M68.856 132.102L69.8064 131.791L69.581 131.102H68.856V132.102ZM18.352 132.102V131.102H17.627L17.4016 131.791L18.352 132.102ZM10.862 155V156H11.587L11.8124 155.311L10.862 155ZM-39 155L-39.9391 154.656L-40.4306 156H-39V155ZM16.426 3.488V2.488H15.727L15.4869 3.14445L16.426 3.488ZM71.21 3.488L72.1496 3.14561L71.9099 2.488H71.21V3.488ZM126.422 155V156H127.851L127.362 154.658L126.422 155ZM76.346 155L75.3956 155.311L75.621 156H76.346V155ZM57.3 96.364V97.364H58.6763L58.2511 96.055L57.3 96.364ZM43.604 54.206L44.5551 53.897L43.604 50.9695L42.6529 53.897L43.604 54.206ZM29.908 96.364L28.9569 96.055L28.5317 97.364H29.908V96.364ZM68.856 131.102H18.352V133.102H68.856V131.102ZM17.4016 131.791L9.91156 154.689L11.8124 155.311L19.3024 132.413L17.4016 131.791ZM10.862 154H-39V156H10.862V154ZM-38.0609 155.344L17.3651 3.83155L15.4869 3.14445L-39.9391 154.656L-38.0609 155.344ZM16.426 4.488H71.21V2.488H16.426V4.488ZM70.2704 3.83038L125.482 155.342L127.362 154.658L72.1496 3.14561L70.2704 3.83038ZM126.422 154H76.346V156H126.422V154ZM77.2965 154.689L69.8064 131.791L67.9056 132.413L75.3956 155.311L77.2965 154.689ZM58.2511 96.055L44.5551 53.897L42.6529 54.515L56.3489 96.673L58.2511 96.055ZM42.6529 53.897L28.9569 96.055L30.8591 96.673L44.5551 54.515L42.6529 53.897ZM29.908 97.364H57.3V95.364H29.908V97.364ZM238.652 77.318L238.401 76.35L238.423 78.2916L238.652 77.318ZM259.838 90.586L259.036 91.1833L259.043 91.1929L259.05 91.2023L259.838 90.586ZM254.274 144.3L254.908 145.073L254.909 145.072L254.274 144.3ZM137.216 155H136.216V156H137.216V155ZM137.216 3.488V2.488H136.216V3.488H137.216ZM257.056 65.334L256.262 64.7252L256.26 64.728L257.056 65.334ZM184.724 62.552H183.724V63.552H184.724V62.552ZM212.544 59.984L211.919 59.2031L211.906 59.2137L211.893 59.2247L212.544 59.984ZM212.544 43.934L211.863 44.6668L211.89 44.6918L211.919 44.7149L212.544 43.934ZM184.724 41.152V40.152H183.724V41.152H184.724ZM215.754 114.554L216.371 115.34L216.378 115.335L215.754 114.554ZM184.724 95.508V94.508H183.724V95.508H184.724ZM184.724 116.908H183.724V117.908H184.724V116.908ZM238.423 78.2916C247.354 80.3848 254.2 84.6903 259.036 91.1833L260.64 89.9887C255.488 83.071 248.21 78.5312 238.88 76.3444L238.423 78.2916ZM259.05 91.2023C264.042 97.5808 266.542 104.994 266.542 113.484H268.542C268.542 104.569 265.905 96.7165 260.625 89.9697L259.05 91.2023ZM266.542 113.484C266.542 126.506 262.215 136.473 253.638 143.528L254.909 145.072C264.023 137.575 268.542 126.998 268.542 113.484H266.542ZM253.64 143.527C245.182 150.459 232.888 154 216.61 154V156C233.145 156 245.96 152.407 254.908 145.073L253.64 143.527ZM216.61 154H137.216V156H216.61V154ZM138.216 155V3.488H136.216V155H138.216ZM137.216 4.488H214.47V2.488H137.216V4.488ZM214.47 4.488C229.742 4.488 241.63 7.81194 250.246 14.3429L251.454 12.7491C242.378 5.86938 230.013 2.488 214.47 2.488V4.488ZM250.246 14.3429C258.8 20.8279 263.118 30.2813 263.118 42.864H265.118C265.118 29.7667 260.59 19.6748 251.454 12.7491L250.246 14.3429ZM263.118 42.864C263.118 51.5223 260.817 58.7897 256.262 64.7252L257.849 65.9428C262.71 59.6089 265.118 51.8963 265.118 42.864H263.118ZM256.26 64.728C251.839 70.5312 245.901 74.4055 238.401 76.35L238.903 78.286C246.81 76.2358 253.142 72.1208 257.851 65.94L256.26 64.728ZM184.724 63.552H203.128V61.552H184.724V63.552ZM203.128 63.552C207.506 63.552 210.932 62.6823 213.194 60.7433L211.893 59.2247C210.16 60.7097 207.309 61.552 203.128 61.552V63.552ZM213.168 60.7649C215.613 58.8088 216.754 55.8374 216.754 52.066H214.754C214.754 55.4279 213.754 57.7352 211.919 59.2031L213.168 60.7649ZM216.754 52.066C216.754 48.1674 215.622 45.1164 213.168 43.1531L211.919 44.7149C213.745 46.1755 214.754 48.5459 214.754 52.066H216.754ZM213.224 43.2012C210.961 41.0995 207.522 40.152 203.128 40.152V42.152C207.293 42.152 210.132 43.0591 211.863 44.6668L213.224 43.2012ZM203.128 40.152H184.724V42.152H203.128V40.152ZM183.724 41.152V62.552H185.724V41.152H183.724ZM206.338 117.908C210.702 117.908 214.113 117.115 216.371 115.34L215.136 113.768C213.4 115.132 210.533 115.908 206.338 115.908V117.908ZM216.378 115.335C218.832 113.372 219.964 110.321 219.964 106.422H217.964C217.964 109.942 216.955 112.312 215.129 113.773L216.378 115.335ZM219.964 106.422C219.964 102.589 218.848 99.5434 216.461 97.48C214.102 95.4406 210.668 94.508 206.338 94.508V96.508C210.425 96.508 213.304 97.3944 215.153 98.993C216.975 100.568 217.964 102.979 217.964 106.422H219.964ZM206.338 94.508H184.724V96.508H206.338V94.508ZM183.724 95.508V116.908H185.724V95.508H183.724ZM184.724 117.908H206.338V115.908H184.724V117.908ZM317.959 146.44L317.466 147.31L317.47 147.313L317.959 146.44ZM289.711 118.62L288.85 119.128L289.711 118.62ZM317.959 10.978L318.443 11.8527L318.447 11.8507L317.959 10.978ZM396.497 10.978L396.004 11.8482L396.012 11.8526L396.497 10.978ZM424.531 38.584L423.665 39.0846L423.67 39.0924L424.531 38.584ZM424.531 118.62L423.67 118.112L423.665 118.119L424.531 118.62ZM396.283 146.44L395.794 145.567L395.79 145.57L396.283 146.44ZM379.163 103.212L379.922 103.863L379.929 103.854L379.163 103.212ZM379.163 53.992L378.396 54.634L378.403 54.6428L379.163 53.992ZM335.293 53.992L336.052 54.6428L336.059 54.6339L335.293 53.992ZM335.293 103.212L334.526 103.854L334.533 103.863L335.293 103.212ZM357.335 155.498C343.232 155.498 330.276 152.186 318.447 145.567L317.47 147.313C329.61 154.105 342.904 157.498 357.335 157.498V155.498ZM318.451 145.57C306.764 138.952 297.474 129.804 290.572 118.112L288.85 119.128C295.928 131.119 305.471 140.518 317.466 147.31L318.451 145.57ZM290.572 118.112C283.679 106.436 280.225 93.2751 280.225 78.602H278.225C278.225 93.6035 281.761 107.121 288.85 119.128L290.572 118.112ZM280.225 78.602C280.225 63.9289 283.679 50.7676 290.572 39.0924L288.85 38.0756C281.761 50.0831 278.225 63.6004 278.225 78.602H280.225ZM290.572 39.0924C297.473 27.402 306.76 18.3275 318.443 11.8526L317.474 10.1033C305.474 16.7538 295.929 26.0834 288.85 38.0756L290.572 39.0924ZM318.447 11.8507C330.276 5.23214 343.232 1.91999 357.335 1.91999V-0.0800095C342.904 -0.0800095 329.61 3.31318 317.47 10.1053L318.447 11.8507ZM357.335 1.91999C371.437 1.91999 384.32 5.23211 396.004 11.8482L396.989 10.1078C384.99 3.31321 371.765 -0.0800095 357.335 -0.0800095V1.91999ZM396.012 11.8526C407.693 18.3265 416.907 27.3985 423.665 39.0846L425.396 38.0834C418.459 26.0869 408.983 16.7548 396.981 10.1033L396.012 11.8526ZM423.67 39.0924C430.562 50.7676 434.017 63.9289 434.017 78.602H436.017C436.017 63.6004 432.481 50.0831 425.392 38.0756L423.67 39.0924ZM434.017 78.602C434.017 93.2751 430.562 106.436 423.67 118.112L425.392 119.128C432.481 107.121 436.017 93.6035 436.017 78.602H434.017ZM423.665 118.119C416.907 129.804 407.622 138.949 395.794 145.567L396.771 147.313C408.911 140.52 418.458 131.118 425.396 119.121L423.665 118.119ZM395.79 145.57C384.105 152.187 371.293 155.498 357.335 155.498V157.498C371.625 157.498 384.778 154.104 396.775 147.31L395.79 145.57ZM357.335 113.2C366.981 113.2 374.559 110.12 379.922 103.863L378.403 102.561C373.494 108.288 366.521 111.2 357.335 111.2V113.2ZM379.929 103.854C385.255 97.4933 387.867 89.0407 387.867 78.602H385.867C385.867 88.7072 383.343 96.6614 378.396 102.57L379.929 103.854ZM387.867 78.602C387.867 68.026 385.257 59.5656 379.922 53.3412L378.403 54.6428C383.34 60.4024 385.867 68.3487 385.867 78.602H387.867ZM379.929 53.3501C374.569 46.9474 366.989 43.79 357.335 43.79V45.79C366.513 45.79 373.484 48.7673 378.396 54.6339L379.929 53.3501ZM357.335 43.79C347.544 43.79 339.889 46.9438 334.526 53.3501L336.059 54.6339C340.968 48.7708 348.008 45.79 357.335 45.79V43.79ZM334.533 53.3412C329.198 59.5656 326.589 68.026 326.589 78.602H328.589C328.589 68.3487 331.115 60.4024 336.052 54.6428L334.533 53.3412ZM326.589 78.602C326.589 89.0407 329.201 97.4933 334.526 103.854L336.059 102.57C331.113 96.6614 328.589 88.7072 328.589 78.602H326.589ZM334.533 103.863C339.899 110.123 347.552 113.2 357.335 113.2V111.2C348 111.2 340.958 108.285 336.052 102.561L334.533 103.863ZM498.593 3.488H499.593V2.488H498.593V3.488ZM503.087 105.566L502.277 106.153L502.289 106.168L502.301 106.184L503.087 105.566ZM533.261 105.566L534.034 106.201L534.039 106.194L534.045 106.187L533.261 105.566ZM538.183 3.488V2.488H537.183V3.488H538.183ZM585.477 3.488H586.477V2.488H585.477V3.488ZM576.489 125.896L577.35 126.405L577.353 126.4L576.489 125.896ZM551.879 148.794L552.321 149.691L551.879 148.794ZM482.757 148.794L482.294 149.681L482.3 149.683L482.757 148.794ZM459.645 125.896L458.769 126.377L459.645 125.896ZM451.299 3.488V2.488H450.299V3.488H451.299ZM497.593 3.488V88.874H499.593V3.488H497.593ZM497.593 88.874C497.593 95.9992 499.119 101.792 502.277 106.153L503.897 104.979C501.063 101.065 499.593 95.7301 499.593 88.874H497.593ZM502.301 106.184C505.69 110.497 511.027 112.558 518.067 112.558V110.558C511.412 110.558 506.762 108.624 503.873 104.948L502.301 106.184ZM518.067 112.558C525.11 112.558 530.505 110.496 534.034 106.201L532.488 104.931C529.454 108.625 524.72 110.558 518.067 110.558V112.558ZM534.045 106.187C537.506 101.823 539.183 96.017 539.183 88.874H537.183C537.183 95.7123 535.579 101.034 532.478 104.945L534.045 106.187ZM539.183 88.874V3.488H537.183V88.874H539.183ZM538.183 4.488H585.477V2.488H538.183V4.488ZM584.477 3.488V88.874H586.477V3.488H584.477ZM584.477 88.874C584.477 103.144 581.511 115.302 575.625 125.392L577.353 126.4C583.451 115.946 586.477 103.423 586.477 88.874H584.477ZM575.628 125.387C569.734 135.351 561.675 142.848 551.437 147.897L552.321 149.691C562.913 144.468 571.26 136.699 577.35 126.405L575.628 125.387ZM551.437 147.897C541.174 152.958 529.7 155.498 516.997 155.498V157.498C529.974 157.498 541.755 154.902 552.321 149.691L551.437 147.897ZM516.997 155.498C504.293 155.498 493.041 152.958 483.214 147.905L482.3 149.683C492.447 154.902 504.021 157.498 516.997 157.498V155.498ZM483.22 147.907C473.558 142.867 465.995 135.378 460.522 125.415L458.769 126.377C464.423 136.672 472.268 144.449 482.294 149.681L483.22 147.907ZM460.522 125.415C455.057 115.466 452.299 103.3 452.299 88.874H450.299C450.299 103.551 453.105 116.067 458.769 126.377L460.522 125.415ZM452.299 88.874V3.488H450.299V88.874H452.299ZM451.299 4.488H498.593V2.488H451.299V4.488ZM724.952 3.488H725.952V2.488H724.952V3.488ZM724.952 41.152V42.152H725.952V41.152H724.952ZM684.72 41.152V40.152H683.72V41.152H684.72ZM684.72 155V156H685.72V155H684.72ZM637.212 155H636.212V156H637.212V155ZM637.212 41.152H638.212V40.152H637.212V41.152ZM597.408 41.152H596.408V42.152H597.408V41.152ZM597.408 3.488V2.488H596.408V3.488H597.408ZM723.952 3.488V41.152H725.952V3.488H723.952ZM724.952 40.152H684.72V42.152H724.952V40.152ZM683.72 41.152V155H685.72V41.152H683.72ZM684.72 154H637.212V156H684.72V154ZM638.212 155V41.152H636.212V155H638.212ZM637.212 40.152H597.408V42.152H637.212V40.152ZM598.408 41.152V3.488H596.408V41.152H598.408ZM597.408 4.488H724.952V2.488H597.408V4.488ZM820.638 3.488H821.638V2.488H820.638V3.488ZM825.132 105.566L824.322 106.153L824.334 106.168L824.346 106.184L825.132 105.566ZM855.306 105.566L856.079 106.201L856.084 106.194L856.089 106.187L855.306 105.566ZM860.228 3.488V2.488H859.228V3.488H860.228ZM907.522 3.488H908.522V2.488H907.522V3.488ZM898.534 125.896L899.395 126.405L899.398 126.4L898.534 125.896ZM873.924 148.794L874.366 149.691L873.924 148.794ZM804.802 148.794L804.339 149.681L804.345 149.683L804.802 148.794ZM781.69 125.896L780.814 126.377L781.69 125.896ZM773.344 3.488V2.488H772.344V3.488H773.344ZM819.638 3.488V88.874H821.638V3.488H819.638ZM819.638 88.874C819.638 95.9992 821.164 101.792 824.322 106.153L825.942 104.979C823.108 101.065 821.638 95.7301 821.638 88.874H819.638ZM824.346 106.184C827.735 110.497 833.072 112.558 840.112 112.558V110.558C833.456 110.558 828.806 108.624 825.918 104.948L824.346 106.184ZM840.112 112.558C847.155 112.558 852.55 110.496 856.079 106.201L854.533 104.931C851.499 108.625 846.765 110.558 840.112 110.558V112.558ZM856.089 106.187C859.551 101.823 861.228 96.017 861.228 88.874H859.228C859.228 95.7123 857.624 101.034 854.523 104.945L856.089 106.187ZM861.228 88.874V3.488H859.228V88.874H861.228ZM860.228 4.488H907.522V2.488H860.228V4.488ZM906.522 3.488V88.874H908.522V3.488H906.522ZM906.522 88.874C906.522 103.144 903.556 115.302 897.67 125.392L899.398 126.4C905.496 115.946 908.522 103.423 908.522 88.874H906.522ZM897.673 125.387C891.779 135.351 883.72 142.848 873.482 147.897L874.366 149.691C884.958 144.468 893.305 136.699 899.395 126.405L897.673 125.387ZM873.482 147.897C863.219 152.958 851.745 155.498 839.042 155.498V157.498C852.019 157.498 863.8 154.902 874.366 149.691L873.482 147.897ZM839.042 155.498C826.338 155.498 815.085 152.958 805.259 147.905L804.345 149.683C814.492 154.902 826.066 157.498 839.042 157.498V155.498ZM805.265 147.907C795.603 142.867 788.04 135.378 782.566 125.415L780.814 126.377C786.468 136.672 794.313 144.449 804.339 149.681L805.265 147.907ZM782.566 125.415C777.102 115.466 774.344 103.3 774.344 88.874H772.344C772.344 103.551 775.15 116.067 780.814 126.377L782.566 125.415ZM774.344 88.874V3.488H772.344V88.874H774.344ZM773.344 4.488H820.638V2.488H773.344V4.488ZM942.351 143.872L941.76 144.679L941.771 144.687L942.351 143.872ZM923.305 106.422V105.422H922.242L922.306 106.483L923.305 106.422ZM973.808 106.422L974.805 106.34L974.73 105.422H973.808V106.422ZM991.785 117.764L992.339 118.596L992.347 118.591L992.354 118.586L991.785 117.764ZM988.788 103.426L988.279 104.286L988.291 104.293L988.303 104.3L988.788 103.426ZM970.812 95.722L970.48 96.665L970.481 96.6656L970.812 95.722ZM946.63 85.664L946.167 86.5503L946.175 86.5544L946.63 85.664ZM930.367 71.326L931.175 70.7378L930.367 71.326ZM923.732 47.144L924.732 47.1585L924.732 47.1512V47.144H923.732ZM931.222 22.106L930.417 21.5139L930.414 21.5168L931.222 22.106ZM951.981 6.26999L951.607 5.34253L951.601 5.34468L951.981 6.26999ZM1025.81 13.76L1025.19 14.5449L1025.2 14.5488L1025.81 13.76ZM1043.14 49.926V50.926H1044.18L1044.14 49.8893L1043.14 49.926ZM991.999 49.926L990.999 49.9593L991.031 50.926H991.999V49.926ZM976.591 40.082L977.298 40.7891L977.316 40.7705L977.334 40.751L976.591 40.082ZM980.229 54.206L979.704 55.0576L979.723 55.0693L979.743 55.0802L980.229 54.206ZM998.418 62.124L998.064 63.059L998.069 63.0609L998.418 62.124ZM1021.96 72.396L1021.49 73.2778L1021.5 73.2822L1021.96 72.396ZM1038.22 86.092L1037.43 86.7073L1038.22 86.092ZM1038.22 133.172L1039.07 133.704L1039.07 133.696L1038.22 133.172ZM1018.32 150.292L1017.89 149.389L1018.32 150.292ZM987.291 155.498C969.328 155.498 954.564 151.327 942.93 143.057L941.771 144.687C953.82 153.252 969.016 157.498 987.291 157.498V155.498ZM942.941 143.065C931.516 134.706 925.286 122.516 924.303 106.361L922.306 106.483C923.32 123.142 929.787 135.918 941.76 144.679L942.941 143.065ZM923.305 107.422H973.808V105.422H923.305V107.422ZM972.812 106.504C973.178 110.968 974.359 114.475 976.484 116.875C978.638 119.309 981.646 120.476 985.365 120.476V118.476C982.092 118.476 979.679 117.468 977.981 115.55C976.254 113.599 975.153 110.579 974.805 106.34L972.812 106.504ZM985.365 120.476C988.081 120.476 990.426 119.871 992.339 118.596L991.23 116.932C989.719 117.939 987.784 118.476 985.365 118.476V120.476ZM992.354 118.586C994.519 117.087 995.567 114.829 995.567 111.986H993.567C993.567 114.279 992.76 115.873 991.215 116.942L992.354 118.586ZM995.567 111.986C995.567 107.965 993.356 104.819 989.274 102.552L988.303 104.3C991.925 106.313 993.567 108.873 993.567 111.986H995.567ZM989.298 102.566C985.359 100.231 979.292 97.6375 971.144 94.7784L970.481 96.6656C978.597 99.5132 984.514 102.055 988.279 104.286L989.298 102.566ZM971.145 94.779C961.47 91.3641 953.453 88.0282 947.086 84.7736L946.175 86.5544C952.648 89.8625 960.753 93.2319 970.48 96.665L971.145 94.779ZM947.094 84.7778C940.966 81.5745 935.659 76.9026 931.175 70.7378L929.558 71.9142C934.205 78.304 939.741 83.1909 946.167 86.5502L947.094 84.7778ZM931.175 70.7378C926.768 64.6775 924.592 56.8448 924.732 47.1585L922.733 47.1295C922.588 57.1311 924.835 65.4198 929.558 71.9142L931.175 70.7378ZM924.732 47.144C924.732 37.4763 927.181 29.3455 932.031 22.6952L930.414 21.5168C925.277 28.5625 922.732 37.1236 922.732 47.144H924.732ZM932.028 22.6981C937.046 15.868 943.812 10.6983 952.36 7.1953L951.601 5.34468C942.743 8.975 935.671 14.3626 930.417 21.5139L932.028 22.6981ZM952.354 7.19743C961.064 3.6854 970.85 1.91999 981.727 1.91999V-0.0800095C970.632 -0.0800095 960.587 1.72125 951.607 5.34254L952.354 7.19743ZM981.727 1.91999C1000.13 1.91999 1014.58 6.16531 1025.19 14.5449L1026.43 12.9751C1015.36 4.23468 1000.42 -0.0800095 981.727 -0.0800095V1.91999ZM1025.2 14.5488C1035.92 22.9045 1041.58 34.6682 1042.15 49.9627L1044.14 49.8893C1043.56 34.0824 1037.67 21.7355 1026.43 12.9712L1025.2 14.5488ZM1043.14 48.926H991.999V50.926H1043.14V48.926ZM992.998 49.8927C992.851 45.494 991.748 42.1077 989.469 39.9912L988.108 41.4568C989.823 43.0496 990.86 45.798 990.999 49.9593L992.998 49.8927ZM989.469 39.9912C987.277 37.9561 984.605 36.942 981.513 36.942V38.942C984.126 38.942 986.305 39.7825 988.108 41.4568L989.469 39.9912ZM981.513 36.942C979.245 36.942 977.329 37.7661 975.847 39.413L977.334 40.751C978.42 39.5445 979.786 38.942 981.513 38.942V36.942ZM975.883 39.3749C974.356 40.9027 973.664 43.0474 973.664 45.646H975.664C975.664 43.394 976.257 41.8293 977.298 40.7891L975.883 39.3749ZM973.664 45.646C973.664 49.5131 975.791 52.6496 979.704 55.0576L980.753 53.3543C977.247 51.197 975.664 48.6269 975.664 45.646H973.664ZM979.743 55.0802C983.661 57.2567 989.78 59.9167 998.064 63.059L998.773 61.189C990.508 58.054 984.5 55.4353 980.714 53.3318L979.743 55.0802ZM998.069 63.0609C1007.6 66.6184 1015.41 70.0248 1021.49 73.2778L1022.43 71.5142C1016.24 68.2046 1008.35 64.7629 998.768 61.1871L998.069 63.0609ZM1021.5 73.2822C1027.64 76.4943 1032.95 80.9649 1037.43 86.7073L1039.01 85.4767C1034.36 79.5204 1028.83 74.8603 1022.42 71.5098L1021.5 73.2822ZM1037.43 86.7073C1041.84 92.3488 1044.07 99.4673 1044.07 108.134H1046.07C1046.07 99.1101 1043.74 91.5338 1039.01 85.4767L1037.43 86.7073ZM1044.07 108.134C1044.07 117.235 1041.83 125.397 1037.37 132.648L1039.07 133.696C1043.74 126.11 1046.07 117.58 1046.07 108.134H1044.07ZM1037.38 132.641C1032.92 139.736 1026.44 145.323 1017.89 149.389L1018.75 151.195C1027.6 146.986 1034.39 141.16 1039.07 133.703L1037.38 132.641ZM1017.89 149.389C1009.35 153.449 999.161 155.498 987.291 155.498V157.498C999.388 157.498 1009.88 155.41 1018.75 151.195L1017.89 149.389Z" fill="url(#paint0_linear_28_185)" mask="url(#path-1-outside-1_28_185)"/>
<defs>
<linearGradient id="paint0_linear_28_185" x1="507" y1="80" x2="506.5" y2="177.185" gradientUnits="userSpaceOnUse">
<stop stop-color="#DBDBDB"/>
<stop offset="1" stop-color="#F2F2F2" stop-opacity="0"/>
</linearGradient>
</defs>
</svg>
